<svg xmlns="http://www.w3.org/2000/svg" xmlns:xlink="http://www.w3.org/1999/xlink" width="400" height="120" viewBox="300 600 950 400" preserveAspectRatio="xMidYMid meet" version="1.0">
  <defs>
    <clipPath id="831d1827b2">
      <path d="M 309.527344 623.015625 L 630.90625 623.015625 L 630.90625 997 L 309.527344 997 Z M 309.527344 623.015625 " clip-rule="nonzero"/>
    </clipPath>
    <clipPath id="a20d3386ce">
      <path d="M 470.214844 623.015625 L 630.90625 716.507812 L 630.90625 903.492188 L 470.214844 996.980469 L 309.527344 903.492188 L 309.527344 716.507812 Z M 470.214844 623.015625 " clip-rule="nonzero"/>
    </clipPath>
    <clipPath id="c9381c9b34">
      <path d="M 0.527344 0.015625 L 321.90625 0.015625 L 321.90625 374 L 0.527344 374 Z M 0.527344 0.015625 " clip-rule="nonzero"/>
    </clipPath>
    <clipPath id="b3b56b4155">
      <path d="M 161.214844 0.015625 L 321.90625 93.507812 L 321.90625 280.492188 L 161.214844 373.980469 L 0.527344 280.492188 L 0.527344 93.507812 Z M 161.214844 0.015625 " clip-rule="nonzero"/>
    </clipPath>
    <clipPath id="727886f965">
      <rect x="0" width="322" y="0" height="374"/>
    </clipPath>
    <clipPath id="b3b23c2172">
      <rect x="0" width="142" y="0" height="210"/>
    </clipPath>
  </defs>
  
  <!-- Hexagon with White background for dark mode -->
  <g clip-path="url(#831d1827b2)">
    <g clip-path="url(#a20d3386ce)">
      <g transform="matrix(1, 0, 0, 1, 309, 623)">
        <g clip-path="url(#727886f965)">
          <g clip-path="url(#c9381c9b34)">
            <g clip-path="url(#b3b56b4155)">
              <!-- Dark mode: White hexagon background -->
              <path fill="#ffffff" d="M 0.527344 0.015625 L 321.90625 0.015625 L 321.90625 374.117188 L 0.527344 374.117188 Z M 0.527344 0.015625 " fill-opacity="1" fill-rule="nonzero"/>
            </g>
          </g>
        </g>
      </g>
    </g>
  </g>
  
  <!-- "E" letter inside hexagon - EMBRION Blue in dark mode -->
  <g transform="matrix(1, 0, 0, 1, 397, 734)">
    <g clip-path="url(#b3b23c2172)">
      <g fill="#031273" fill-opacity="1">
        <g transform="translate(1.049318, 156.381533)">
          <g>
            <path d="M 125.328125 -154.5 L 125.328125 -125.109375 L 50.375 -125.109375 L 50.375 -92.15625 L 116.71875 -92.15625 L 116.71875 -62.765625 L 50.375 -62.765625 L 50.375 -29.390625 L 128.265625 -29.390625 L 128.265625 0 L 19.9375 0 L 19.9375 -154.5 Z M 125.328125 -154.5 "/>
          </g>
        </g>
      </g>
    </g>
  </g>
  
  <!-- "MBRION" text - White in dark mode for better contrast -->
  <g fill="#ffffff" fill-opacity="1">
    <g transform="translate(647.985744, 869.096858)">
      <g>
        <path d="M 133.6875 -121.171875 L 133.6875 0 L 118.09375 0 L 118.09375 -76.015625 L 74.890625 -14.78125 L 74.5625 -14.78125 L 32.15625 -73.90625 L 32.15625 0 L 16.890625 0 L 16.890625 -121.171875 L 17.0625 -121.171875 L 74.890625 -39.3125 L 133.53125 -121.171875 Z M 133.6875 -121.171875 "/>
      </g>
    </g>
  </g>
  
  <g fill="#ffffff" fill-opacity="1">
    <g transform="translate(798.561589, 869.096858)">
      <g>
        <path d="M 69.203125 -60.90625 C 75.910156 -58.3125 81.210938 -54.601562 85.109375 -49.78125 C 89.015625 -44.96875 90.96875 -39.363281 90.96875 -32.96875 C 90.96875 -25.5 89.148438 -19.300781 85.515625 -14.375 C 81.890625 -9.445312 77.125 -5.816406 71.21875 -3.484375 C 65.320312 -1.160156 58.851562 0 51.8125 0 L 16.890625 0 L 16.890625 -117.4375 L 47.265625 -117.4375 C 59.285156 -117.4375 68.597656 -114.972656 75.203125 -110.046875 C 81.816406 -105.117188 85.125 -97.726562 85.125 -87.875 C 85.125 -81.707031 83.738281 -76.320312 80.96875 -71.71875 C 78.207031 -67.113281 74.285156 -63.507812 69.203125 -60.90625 Z M 32.65625 -66.109375 L 50.515625 -66.109375 C 56.578125 -66.109375 61.148438 -67.84375 64.234375 -71.3125 C 67.328125 -74.78125 68.875 -79.21875 68.875 -84.625 C 68.875 -90.582031 67.03125 -95.019531 63.34375 -97.9375 C 59.664062 -100.863281 54.523438 -102.328125 47.921875 -102.328125 L 32.65625 -102.328125 Z M 51.171875 -14.625 C 57.992188 -14.625 63.625 -16.164062 68.0625 -19.25 C 72.5 -22.332031 74.71875 -26.851562 74.71875 -32.8125 C 74.71875 -38.988281 72.304688 -43.535156 67.484375 -46.453125 C 62.671875 -49.378906 56.851562 -50.84375 50.03125 -50.84375 L 32.65625 -50.84375 L 32.65625 -14.625 Z M 51.171875 -14.625 "/>
      </g>
    </g>
  </g>
  
  <g fill="#ffffff" fill-opacity="1">
    <g transform="translate(899.107918, 869.096858)">
      <g>
        <path d="M 81.546875 0 L 53.921875 -43.375 C 53.054688 -43.257812 51.757812 -43.203125 50.03125 -43.203125 L 32.65625 -43.203125 L 32.65625 0 L 16.890625 0 L 16.890625 -117.4375 L 48.25 -117.4375 C 56.257812 -117.4375 63.40625 -116.03125 69.6875 -113.21875 C 75.96875 -110.40625 80.894531 -106.265625 84.46875 -100.796875 C 88.039062 -95.328125 89.828125 -88.75 89.828125 -81.0625 C 89.828125 -73.800781 88.226562 -67.140625 85.03125 -61.078125 C 81.84375 -55.015625 76.941406 -50.410156 70.328125 -47.265625 L 99.90625 0 Z M 49.703125 -58.484375 C 58.148438 -58.484375 64.238281 -60.703125 67.96875 -65.140625 C 71.707031 -69.578125 73.578125 -74.664062 73.578125 -80.40625 C 73.578125 -83.875 72.789062 -87.285156 71.21875 -90.640625 C 69.65625 -93.992188 67.164062 -96.78125 63.75 -99 C 60.34375 -101.21875 56.039062 -102.328125 50.84375 -102.328125 L 32.65625 -102.328125 L 32.65625 -58.484375 Z M 49.703125 -58.484375 "/>
      </g>
    </g>
  </g>
  
  <g fill="#ffffff" fill-opacity="1">
    <g transform="translate(1006.314009, 869.096858)">
      <g>
        <path d="M 32.65625 -117.4375 L 32.65625 0 L 16.890625 0 L 16.890625 -117.4375 Z M 32.65625 -117.4375 "/>
      </g>
    </g>
  </g>
  
  <g fill="#ffffff" fill-opacity="1">
    <g transform="translate(1055.856256, 869.096858)">
      <g>
        <path d="M 9.578125 -58.640625 C 9.578125 -69.359375 12.285156 -79.316406 17.703125 -88.515625 C 23.117188 -97.722656 30.398438 -105.0625 39.546875 -110.53125 C 48.703125 -116 58.691406 -118.734375 69.515625 -118.734375 C 80.242188 -118.734375 90.207031 -116 99.40625 -110.53125 C 108.613281 -105.0625 115.953125 -97.722656 121.421875 -88.515625 C 126.890625 -79.316406 129.625 -69.359375 129.625 -58.640625 C 129.625 -47.804688 126.914062 -37.785156 121.5 -28.578125 C 116.082031 -19.378906 108.742188 -12.097656 99.484375 -6.734375 C 90.234375 -1.378906 80.242188 1.296875 69.515625 1.296875 C 58.691406 1.296875 48.675781 -1.351562 39.46875 -6.65625 C 30.269531 -11.96875 22.988281 -19.195312 17.625 -28.34375 C 12.257812 -37.5 9.578125 -47.597656 9.578125 -58.640625 Z M 25.828125 -58.484375 C 25.828125 -50.460938 27.773438 -43.039062 31.671875 -36.21875 C 35.566406 -29.394531 40.898438 -23.976562 47.671875 -19.96875 C 54.441406 -15.96875 61.832031 -13.96875 69.84375 -13.96875 C 77.863281 -13.96875 85.203125 -15.941406 91.859375 -19.890625 C 98.515625 -23.847656 103.765625 -29.265625 107.609375 -36.140625 C 111.453125 -43.015625 113.375 -50.515625 113.375 -58.640625 C 113.375 -66.765625 111.425781 -74.289062 107.53125 -81.21875 C 103.632812 -88.144531 98.328125 -93.613281 91.609375 -97.625 C 84.898438 -101.632812 77.535156 -103.640625 69.515625 -103.640625 C 61.503906 -103.640625 54.140625 -101.609375 47.421875 -97.546875 C 40.710938 -93.484375 35.4375 -87.984375 31.59375 -81.046875 C 27.75 -74.117188 25.828125 -66.597656 25.828125 -58.484375 Z M 25.828125 -58.484375 "/>
      </g>
    </g>
  </g>
  
  <g fill="#ffffff" fill-opacity="1">
    <g transform="translate(1195.061719, 869.096858)">
      <g>
        <path d="M 119.234375 -117.4375 L 119.234375 3.90625 L 118.734375 3.90625 L 32.484375 -83.65625 L 32.8125 0 L 16.890625 0 L 16.890625 -121.015625 L 17.703125 -121.015625 L 103.796875 -32.484375 L 103.46875 -117.4375 Z M 119.234375 -117.4375 "/>
      </g>
    </g>
  </g>
</svg>
